<mxfile host="65bd71144e">
    <diagram id="Nh9DbsmlWs0bwRpxvXcd" name="User Information">
        <mxGraphModel dx="609" dy="568" grid="1" gridSize="10" guides="1" tooltips="1" connect="1" arrows="1" fold="1" page="1" pageScale="1" pageWidth="1100" pageHeight="850" math="0" shadow="0">
            <root>
                <mxCell id="0"/>
                <mxCell id="1" parent="0"/>
                <mxCell id="7" value="Student &amp;amp; &lt;br&gt;Lecturer" style="shape=umlActor;verticalLabelPosition=bottom;verticalAlign=top;html=1;outlineConnect=0;" parent="1" vertex="1">
                    <mxGeometry x="90" y="170" width="30" height="60" as="geometry"/>
                </mxCell>
                <mxCell id="10" value="SRC" style="shape=umlActor;verticalLabelPosition=bottom;verticalAlign=top;html=1;outlineConnect=0;" parent="1" vertex="1">
                    <mxGeometry x="90" y="280" width="30" height="60" as="geometry"/>
                </mxCell>
                <mxCell id="11" value="Admin" style="shape=umlActor;verticalLabelPosition=bottom;verticalAlign=top;html=1;outlineConnect=0;" parent="1" vertex="1">
                    <mxGeometry x="90" y="370" width="30" height="60" as="geometry"/>
                </mxCell>
                <mxCell id="14" value="" style="rounded=0;whiteSpace=wrap;html=1;fillColor=#FFCCCC;" parent="1" vertex="1">
                    <mxGeometry x="230" y="290" width="340" height="180" as="geometry"/>
                </mxCell>
                <mxCell id="15" value="Registration and Authentication Module" style="rounded=0;whiteSpace=wrap;html=1;" parent="1" vertex="1">
                    <mxGeometry x="230" y="270" width="230" height="20" as="geometry"/>
                </mxCell>
                <mxCell id="16" value="UC001: Sign Up&lt;br&gt;(UTM Email)" style="ellipse;whiteSpace=wrap;html=1;" parent="1" vertex="1">
                    <mxGeometry x="245" y="315" width="110" height="60" as="geometry"/>
                </mxCell>
                <mxCell id="3bklzfCK_-_vBuCAfFPz-16" style="edgeStyle=none;html=1;exitX=0.5;exitY=0.5;exitDx=0;exitDy=0;exitPerimeter=0;" parent="1" source="7" target="16" edge="1">
                    <mxGeometry relative="1" as="geometry"/>
                </mxCell>
                <mxCell id="3bklzfCK_-_vBuCAfFPz-17" style="edgeStyle=none;html=1;exitX=0.5;exitY=0.5;exitDx=0;exitDy=0;exitPerimeter=0;entryX=0;entryY=0.5;entryDx=0;entryDy=0;" parent="1" source="10" target="16" edge="1">
                    <mxGeometry relative="1" as="geometry"/>
                </mxCell>
                <mxCell id="3bklzfCK_-_vBuCAfFPz-18" style="edgeStyle=none;html=1;exitX=0.5;exitY=0.5;exitDx=0;exitDy=0;exitPerimeter=0;entryX=0;entryY=1;entryDx=0;entryDy=0;" parent="1" source="11" target="16" edge="1">
                    <mxGeometry relative="1" as="geometry"/>
                </mxCell>
                <mxCell id="3bklzfCK_-_vBuCAfFPz-19" value="UC002: Email verification" style="ellipse;whiteSpace=wrap;html=1;" parent="1" vertex="1">
                    <mxGeometry x="445" y="320" width="110" height="50" as="geometry"/>
                </mxCell>
                <mxCell id="3bklzfCK_-_vBuCAfFPz-20" value="UC003: Reset password" style="ellipse;whiteSpace=wrap;html=1;" parent="1" vertex="1">
                    <mxGeometry x="255" y="390" width="100" height="55" as="geometry"/>
                </mxCell>
                <mxCell id="tRfl53h29Oq87ieM9Fut-21" value="" style="edgeStyle=none;html=1;entryX=0;entryY=0.5;entryDx=0;entryDy=0;endArrow=none;" parent="1" source="3bklzfCK_-_vBuCAfFPz-20" target="tRfl53h29Oq87ieM9Fut-20" edge="1">
                    <mxGeometry relative="1" as="geometry">
                        <mxPoint x="310" y="420" as="sourcePoint"/>
                        <mxPoint x="500" y="430" as="targetPoint"/>
                    </mxGeometry>
                </mxCell>
                <mxCell id="UXrXXBjXpSe41hVyBI7v-28" style="edgeStyle=none;html=1;exitX=0;exitY=0.25;exitDx=0;exitDy=0;entryX=1;entryY=1;entryDx=0;entryDy=0;" parent="1" source="tRfl53h29Oq87ieM9Fut-20" target="16" edge="1">
                    <mxGeometry relative="1" as="geometry"/>
                </mxCell>
                <mxCell id="tRfl53h29Oq87ieM9Fut-20" value="&amp;lt;include&amp;gt;" style="rounded=0;whiteSpace=wrap;html=1;fillColor=#CCCCCC;" parent="1" vertex="1">
                    <mxGeometry x="370" y="370" width="60" height="20" as="geometry"/>
                </mxCell>
                <mxCell id="tRfl53h29Oq87ieM9Fut-25" value="UC004: Login" style="ellipse;whiteSpace=wrap;html=1;" parent="1" vertex="1">
                    <mxGeometry x="455" y="395" width="90" height="40" as="geometry"/>
                </mxCell>
                <mxCell id="UXrXXBjXpSe41hVyBI7v-29" style="edgeStyle=none;html=1;exitX=1;exitY=0.5;exitDx=0;exitDy=0;entryX=0;entryY=0.5;entryDx=0;entryDy=0;" parent="1" source="tRfl53h29Oq87ieM9Fut-26" target="tRfl53h29Oq87ieM9Fut-25" edge="1">
                    <mxGeometry relative="1" as="geometry"/>
                </mxCell>
                <mxCell id="tRfl53h29Oq87ieM9Fut-26" value="&amp;lt;include&amp;gt;" style="rounded=0;whiteSpace=wrap;html=1;fillColor=#CCCCCC;" parent="1" vertex="1">
                    <mxGeometry x="370" y="405" width="60" height="20" as="geometry"/>
                </mxCell>
                <mxCell id="UXrXXBjXpSe41hVyBI7v-26" style="edgeStyle=none;html=1;exitX=0;exitY=0.5;exitDx=0;exitDy=0;entryX=1;entryY=0.5;entryDx=0;entryDy=0;" parent="1" source="tRfl53h29Oq87ieM9Fut-17" target="16" edge="1">
                    <mxGeometry relative="1" as="geometry"/>
                </mxCell>
                <mxCell id="tRfl53h29Oq87ieM9Fut-17" value="&amp;lt;include&amp;gt;" style="rounded=0;whiteSpace=wrap;html=1;fillColor=#CCCCCC;" parent="1" vertex="1">
                    <mxGeometry x="370" y="335" width="60" height="20" as="geometry"/>
                </mxCell>
                <mxCell id="UXrXXBjXpSe41hVyBI7v-27" value="" style="endArrow=none;html=1;exitX=1;exitY=0.5;exitDx=0;exitDy=0;entryX=0;entryY=0.5;entryDx=0;entryDy=0;" parent="1" source="tRfl53h29Oq87ieM9Fut-17" target="3bklzfCK_-_vBuCAfFPz-19" edge="1">
                    <mxGeometry width="50" height="50" relative="1" as="geometry">
                        <mxPoint x="430" y="355" as="sourcePoint"/>
                        <mxPoint x="480" y="305" as="targetPoint"/>
                    </mxGeometry>
                </mxCell>
                <mxCell id="UXrXXBjXpSe41hVyBI7v-31" value="" style="endArrow=none;html=1;entryX=0;entryY=0.5;entryDx=0;entryDy=0;exitX=1;exitY=0.5;exitDx=0;exitDy=0;" parent="1" source="3bklzfCK_-_vBuCAfFPz-20" target="tRfl53h29Oq87ieM9Fut-26" edge="1">
                    <mxGeometry width="50" height="50" relative="1" as="geometry">
                        <mxPoint x="360" y="420" as="sourcePoint"/>
                        <mxPoint x="390" y="350" as="targetPoint"/>
                    </mxGeometry>
                </mxCell>
                <mxCell id="tRfl53h29Oq87ieM9Fut-35" value="&lt;div&gt;- user information&lt;/div&gt;&lt;div&gt;- registration module&lt;/div&gt;&lt;div&gt;- processing module&lt;/div&gt;&lt;div&gt;- admin and reporting&lt;/div&gt;&lt;div&gt;- personalised dashboard module&lt;/div&gt;&lt;div&gt;- anonymous forum module&lt;/div&gt;&lt;div&gt;-feedback module (aka src)&lt;/div&gt;" style="text;html=1;strokeColor=none;fillColor=none;align=center;verticalAlign=middle;whiteSpace=wrap;rounded=0;" parent="1" vertex="1">
                    <mxGeometry x="530" y="80" width="240" height="30" as="geometry"/>
                </mxCell>
                <mxCell id="tRfl53h29Oq87ieM9Fut-37" value="" style="rounded=0;whiteSpace=wrap;html=1;fillColor=#FFCCCC;" parent="1" vertex="1">
                    <mxGeometry x="230" y="520" width="440" height="260" as="geometry"/>
                </mxCell>
                <mxCell id="17" value="Admin and Reporting Module" style="rounded=0;whiteSpace=wrap;html=1;" parent="1" vertex="1">
                    <mxGeometry x="230" y="500" width="170" height="20" as="geometry"/>
                </mxCell>
                <mxCell id="18" value="UC0??: Generate Report" style="ellipse;whiteSpace=wrap;html=1;" parent="1" vertex="1">
                    <mxGeometry x="280" y="535" width="120" height="50" as="geometry"/>
                </mxCell>
                <mxCell id="23" style="edgeStyle=none;html=1;exitX=0;exitY=0.5;exitDx=0;exitDy=0;entryX=1;entryY=0.5;entryDx=0;entryDy=0;startArrow=none;" parent="1" source="27" target="18" edge="1">
                    <mxGeometry relative="1" as="geometry"/>
                </mxCell>
                <mxCell id="19" value="UC0??: View &lt;br&gt;Report" style="ellipse;whiteSpace=wrap;html=1;" parent="1" vertex="1">
                    <mxGeometry x="500" y="535" width="100" height="45" as="geometry"/>
                </mxCell>
                <mxCell id="21" value="UC0??: Manage Report" style="ellipse;whiteSpace=wrap;html=1;" parent="1" vertex="1">
                    <mxGeometry x="380" y="600" width="120" height="50" as="geometry"/>
                </mxCell>
                <mxCell id="24" style="edgeStyle=none;html=1;exitX=0.5;exitY=0;exitDx=0;exitDy=0;startArrow=none;" parent="1" source="25" target="18" edge="1">
                    <mxGeometry relative="1" as="geometry"/>
                </mxCell>
                <mxCell id="22" value="UC0??: Delete Report" style="ellipse;whiteSpace=wrap;html=1;" parent="1" vertex="1">
                    <mxGeometry x="240" y="630" width="105" height="50" as="geometry"/>
                </mxCell>
                <mxCell id="kwJNHoxk6TTBNaTpvNkK-22" value="" style="rounded=0;whiteSpace=wrap;html=1;" parent="1" vertex="1">
                    <mxGeometry x="1120" y="55" width="380" height="260" as="geometry"/>
                </mxCell>
                <mxCell id="kwJNHoxk6TTBNaTpvNkK-23" value="" style="rounded=0;whiteSpace=wrap;html=1;" parent="1" vertex="1">
                    <mxGeometry x="1120" y="20" width="190" height="30" as="geometry"/>
                </mxCell>
                <mxCell id="kwJNHoxk6TTBNaTpvNkK-24" value="Feedback Module" style="text;html=1;strokeColor=none;fillColor=none;align=center;verticalAlign=middle;whiteSpace=wrap;rounded=0;" parent="1" vertex="1">
                    <mxGeometry x="1130" y="20" width="170" height="30" as="geometry"/>
                </mxCell>
                <mxCell id="kwJNHoxk6TTBNaTpvNkK-27" value="&lt;span style=&quot;color: rgb(0, 0, 0); font-family: Helvetica; font-size: 12px; font-style: normal; font-variant-ligatures: normal; font-variant-caps: normal; font-weight: 400; letter-spacing: normal; orphans: 2; text-align: center; text-indent: 0px; text-transform: none; widows: 2; word-spacing: 0px; -webkit-text-stroke-width: 0px; background-color: rgb(251, 251, 251); text-decoration-thickness: initial; text-decoration-style: initial; text-decoration-color: initial; float: none; display: inline !important;&quot;&gt;UC000: View feedback&lt;/span&gt;" style="ellipse;whiteSpace=wrap;html=1;" parent="1" vertex="1">
                    <mxGeometry x="1350" y="150" width="120" height="50" as="geometry"/>
                </mxCell>
                <mxCell id="kwJNHoxk6TTBNaTpvNkK-29" value="&lt;span style=&quot;color: rgb(0, 0, 0); font-family: Helvetica; font-size: 12px; font-style: normal; font-variant-ligatures: normal; font-variant-caps: normal; font-weight: 400; letter-spacing: normal; orphans: 2; text-align: center; text-indent: 0px; text-transform: none; widows: 2; word-spacing: 0px; -webkit-text-stroke-width: 0px; background-color: rgb(251, 251, 251); text-decoration-thickness: initial; text-decoration-style: initial; text-decoration-color: initial; float: none; display: inline !important;&quot;&gt;UC000: Manage feedback&lt;/span&gt;" style="ellipse;whiteSpace=wrap;html=1;" parent="1" vertex="1">
                    <mxGeometry x="1300" y="60" width="120" height="50" as="geometry"/>
                </mxCell>
                <mxCell id="kwJNHoxk6TTBNaTpvNkK-31" value="&lt;span style=&quot;color: rgb(0, 0, 0); font-family: Helvetica; font-size: 12px; font-style: normal; font-variant-ligatures: normal; font-variant-caps: normal; font-weight: 400; letter-spacing: normal; orphans: 2; text-align: center; text-indent: 0px; text-transform: none; widows: 2; word-spacing: 0px; -webkit-text-stroke-width: 0px; background-color: rgb(251, 251, 251); text-decoration-thickness: initial; text-decoration-style: initial; text-decoration-color: initial; float: none; display: inline !important;&quot;&gt;UC000: Delete feedback&lt;/span&gt;" style="ellipse;whiteSpace=wrap;html=1;" parent="1" vertex="1">
                    <mxGeometry x="1140" y="170" width="110" height="50" as="geometry"/>
                </mxCell>
                <mxCell id="UXrXXBjXpSe41hVyBI7v-33" value="UC0??: Manage student and lecturer user account" style="ellipse;whiteSpace=wrap;html=1;" parent="1" vertex="1">
                    <mxGeometry x="400" y="690" width="120" height="70" as="geometry"/>
                </mxCell>
                <mxCell id="UXrXXBjXpSe41hVyBI7v-34" value="UC0??: Manage SRC user account" style="ellipse;whiteSpace=wrap;html=1;" parent="1" vertex="1">
                    <mxGeometry x="530" y="690" width="130" height="60" as="geometry"/>
                </mxCell>
                <mxCell id="UXrXXBjXpSe41hVyBI7v-35" value="UC0??: Manage admin user account" style="ellipse;whiteSpace=wrap;html=1;" parent="1" vertex="1">
                    <mxGeometry x="520" y="605" width="120" height="60" as="geometry"/>
                </mxCell>
                <mxCell id="26" value="" style="edgeStyle=none;html=1;exitX=0.5;exitY=0;exitDx=0;exitDy=0;endArrow=none;" parent="1" source="22" target="25" edge="1">
                    <mxGeometry relative="1" as="geometry">
                        <mxPoint x="292.5" y="630" as="sourcePoint"/>
                        <mxPoint x="323.8349621693528" y="584.0755882584108" as="targetPoint"/>
                    </mxGeometry>
                </mxCell>
                <mxCell id="25" value="&amp;lt;include&amp;gt;" style="rounded=0;whiteSpace=wrap;html=1;fillColor=#CCCCCC;" parent="1" vertex="1">
                    <mxGeometry x="280" y="600" width="60" height="20" as="geometry"/>
                </mxCell>
                <mxCell id="28" value="" style="edgeStyle=none;html=1;exitX=0;exitY=0.5;exitDx=0;exitDy=0;entryX=1;entryY=0.5;entryDx=0;entryDy=0;endArrow=none;" parent="1" source="19" target="27" edge="1">
                    <mxGeometry relative="1" as="geometry">
                        <mxPoint x="470" y="560" as="sourcePoint"/>
                        <mxPoint x="400" y="560" as="targetPoint"/>
                    </mxGeometry>
                </mxCell>
                <mxCell id="27" value="&amp;lt;include&amp;gt;" style="rounded=0;whiteSpace=wrap;html=1;fillColor=#CCCCCC;" parent="1" vertex="1">
                    <mxGeometry x="420" y="547.5" width="60" height="20" as="geometry"/>
                </mxCell>
                <mxCell id="cIsgNL2QNmCeuLE6zkZ4-28" value="" style="rounded=0;whiteSpace=wrap;html=1;" parent="1" vertex="1">
                    <mxGeometry x="1150" y="420" width="550" height="210" as="geometry"/>
                </mxCell>
                <mxCell id="cIsgNL2QNmCeuLE6zkZ4-29" value="" style="rounded=0;whiteSpace=wrap;html=1;" parent="1" vertex="1">
                    <mxGeometry x="1150" y="390" width="190" height="30" as="geometry"/>
                </mxCell>
                <mxCell id="cIsgNL2QNmCeuLE6zkZ4-30" value="Processing Module" style="text;html=1;strokeColor=none;fillColor=none;align=center;verticalAlign=middle;whiteSpace=wrap;rounded=0;" parent="1" vertex="1">
                    <mxGeometry x="1160" y="390" width="170" height="30" as="geometry"/>
                </mxCell>
                <mxCell id="cIsgNL2QNmCeuLE6zkZ4-31" value="" style="ellipse;whiteSpace=wrap;html=1;" parent="1" vertex="1">
                    <mxGeometry x="1170" y="450" width="120" height="80" as="geometry"/>
                </mxCell>
                <mxCell id="cIsgNL2QNmCeuLE6zkZ4-32" value="UC - Process posts" style="text;html=1;strokeColor=none;fillColor=none;align=center;verticalAlign=middle;whiteSpace=wrap;rounded=0;" parent="1" vertex="1">
                    <mxGeometry x="1180" y="475" width="100" height="30" as="geometry"/>
                </mxCell>
                <mxCell id="cIsgNL2QNmCeuLE6zkZ4-33" value="" style="ellipse;whiteSpace=wrap;html=1;" parent="1" vertex="1">
                    <mxGeometry x="1330" y="540" width="120" height="80" as="geometry"/>
                </mxCell>
                <mxCell id="cIsgNL2QNmCeuLE6zkZ4-34" value="UC - Process feedback" style="text;html=1;strokeColor=none;fillColor=none;align=center;verticalAlign=middle;whiteSpace=wrap;rounded=0;" parent="1" vertex="1">
                    <mxGeometry x="1340" y="565" width="100" height="30" as="geometry"/>
                </mxCell>
                <mxCell id="cIsgNL2QNmCeuLE6zkZ4-35" value="" style="ellipse;whiteSpace=wrap;html=1;" parent="1" vertex="1">
                    <mxGeometry x="1380" y="445" width="120" height="80" as="geometry"/>
                </mxCell>
                <mxCell id="cIsgNL2QNmCeuLE6zkZ4-36" value="UC - Posts fillteration" style="text;html=1;strokeColor=none;fillColor=none;align=center;verticalAlign=middle;whiteSpace=wrap;rounded=0;" parent="1" vertex="1">
                    <mxGeometry x="1390" y="470" width="100" height="30" as="geometry"/>
                </mxCell>
                <mxCell id="cIsgNL2QNmCeuLE6zkZ4-40" value="" style="ellipse;whiteSpace=wrap;html=1;" parent="1" vertex="1">
                    <mxGeometry x="1185" y="540" width="120" height="80" as="geometry"/>
                </mxCell>
                <mxCell id="cIsgNL2QNmCeuLE6zkZ4-41" value="UC - Arrange posts based on timeline" style="text;html=1;strokeColor=none;fillColor=none;align=center;verticalAlign=middle;whiteSpace=wrap;rounded=0;" parent="1" vertex="1">
                    <mxGeometry x="1195" y="565" width="100" height="30" as="geometry"/>
                </mxCell>
                <mxCell id="LPGJfSuWznseCfs-JJjP-28" value="" style="rounded=0;whiteSpace=wrap;html=1;fillColor=#FFCCCC;" parent="1" vertex="1">
                    <mxGeometry x="230" y="830" width="420" height="230" as="geometry"/>
                </mxCell>
                <mxCell id="LPGJfSuWznseCfs-JJjP-29" value="Personalised Dashboard Module" style="rounded=0;whiteSpace=wrap;html=1;" parent="1" vertex="1">
                    <mxGeometry x="230" y="810" width="190" height="20" as="geometry"/>
                </mxCell>
                <mxCell id="LPGJfSuWznseCfs-JJjP-30" value="UC0??: Update Profile" style="ellipse;whiteSpace=wrap;html=1;" parent="1" vertex="1">
                    <mxGeometry x="255" y="850" width="120" height="50" as="geometry"/>
                </mxCell>
                <mxCell id="LPGJfSuWznseCfs-JJjP-43" style="edgeStyle=none;html=1;exitX=0.5;exitY=0;exitDx=0;exitDy=0;entryX=0.5;entryY=1;entryDx=0;entryDy=0;startArrow=none;" parent="1" source="LPGJfSuWznseCfs-JJjP-44" target="LPGJfSuWznseCfs-JJjP-30" edge="1">
                    <mxGeometry relative="1" as="geometry"/>
                </mxCell>
                <mxCell id="LPGJfSuWznseCfs-JJjP-32" value="UC0??: Delete Profile" style="ellipse;whiteSpace=wrap;html=1;" parent="1" vertex="1">
                    <mxGeometry x="265" y="975" width="100" height="45" as="geometry"/>
                </mxCell>
                <mxCell id="LPGJfSuWznseCfs-JJjP-50" style="edgeStyle=none;html=1;exitX=0.5;exitY=0;exitDx=0;exitDy=0;entryX=0;entryY=1;entryDx=0;entryDy=0;startArrow=none;" edge="1" parent="1" source="LPGJfSuWznseCfs-JJjP-51" target="LPGJfSuWznseCfs-JJjP-38">
                    <mxGeometry relative="1" as="geometry"/>
                </mxCell>
                <mxCell id="LPGJfSuWznseCfs-JJjP-37" value="UC0??: Edit Post" style="ellipse;whiteSpace=wrap;html=1;" parent="1" vertex="1">
                    <mxGeometry x="395" y="981.25" width="110" height="32.5" as="geometry"/>
                </mxCell>
                <mxCell id="LPGJfSuWznseCfs-JJjP-38" value="UC0??: Make Post" style="ellipse;whiteSpace=wrap;html=1;" parent="1" vertex="1">
                    <mxGeometry x="435" y="870" width="115" height="40" as="geometry"/>
                </mxCell>
                <mxCell id="cIsgNL2QNmCeuLE6zkZ4-42" value="" style="rounded=0;whiteSpace=wrap;html=1;" parent="1" vertex="1">
                    <mxGeometry x="1570" y="87.5" width="350" height="262.5" as="geometry"/>
                </mxCell>
                <mxCell id="cIsgNL2QNmCeuLE6zkZ4-43" value="" style="rounded=0;whiteSpace=wrap;html=1;" parent="1" vertex="1">
                    <mxGeometry x="1570" y="57.5" width="200" height="30" as="geometry"/>
                </mxCell>
                <mxCell id="cIsgNL2QNmCeuLE6zkZ4-44" value="Personalised Dashboard Module" style="text;html=1;strokeColor=none;fillColor=none;align=center;verticalAlign=middle;whiteSpace=wrap;rounded=0;" parent="1" vertex="1">
                    <mxGeometry x="1580" y="57.5" width="180" height="30" as="geometry"/>
                </mxCell>
                <mxCell id="cIsgNL2QNmCeuLE6zkZ4-47" value="&lt;span style=&quot;color: rgb(0, 0, 0); font-family: Helvetica; font-size: 12px; font-style: normal; font-variant-ligatures: normal; font-variant-caps: normal; font-weight: 400; letter-spacing: normal; orphans: 2; text-align: center; text-indent: 0px; text-transform: none; widows: 2; word-spacing: 0px; -webkit-text-stroke-width: 0px; background-color: rgb(251, 251, 251); text-decoration-thickness: initial; text-decoration-style: initial; text-decoration-color: initial; float: none; display: inline !important;&quot;&gt;UC - Edit Personal information&lt;/span&gt;" style="ellipse;whiteSpace=wrap;html=1;" parent="1" vertex="1">
                    <mxGeometry x="1650" y="270" width="120" height="52.5" as="geometry"/>
                </mxCell>
                <mxCell id="cIsgNL2QNmCeuLE6zkZ4-49" value="UC: Make Posting" style="ellipse;whiteSpace=wrap;html=1;" vertex="1" parent="1">
                    <mxGeometry x="1602.5" y="115" width="120" height="35" as="geometry"/>
                </mxCell>
                <mxCell id="cIsgNL2QNmCeuLE6zkZ4-51" value="&lt;span style=&quot;color: rgb(0, 0, 0); font-family: Helvetica; font-size: 12px; font-style: normal; font-variant-ligatures: normal; font-variant-caps: normal; font-weight: 400; letter-spacing: normal; orphans: 2; text-align: center; text-indent: 0px; text-transform: none; widows: 2; word-spacing: 0px; -webkit-text-stroke-width: 0px; background-color: rgb(251, 251, 251); text-decoration-thickness: initial; text-decoration-style: initial; text-decoration-color: initial; float: none; display: inline !important;&quot;&gt;UC - Customise dashboard background&lt;/span&gt;" style="ellipse;whiteSpace=wrap;html=1;" parent="1" vertex="1">
                    <mxGeometry x="1760" y="107.5" width="145" height="57.5" as="geometry"/>
                </mxCell>
                <mxCell id="UXrXXBjXpSe41hVyBI7v-40" style="edgeStyle=none;html=1;exitX=0;exitY=0.5;exitDx=0;exitDy=0;entryX=1;entryY=0.5;entryDx=0;entryDy=0;" parent="1" source="UXrXXBjXpSe41hVyBI7v-38" target="cIsgNL2QNmCeuLE6zkZ4-31" edge="1">
                    <mxGeometry relative="1" as="geometry"/>
                </mxCell>
                <mxCell id="UXrXXBjXpSe41hVyBI7v-38" value="&amp;lt;include&amp;gt;" style="rounded=0;whiteSpace=wrap;html=1;fillColor=#CCCCCC;" parent="1" vertex="1">
                    <mxGeometry x="1310" y="475" width="60" height="20" as="geometry"/>
                </mxCell>
                <mxCell id="UXrXXBjXpSe41hVyBI7v-41" value="" style="endArrow=none;html=1;exitX=1;exitY=0.5;exitDx=0;exitDy=0;entryX=0;entryY=0.5;entryDx=0;entryDy=0;" parent="1" source="UXrXXBjXpSe41hVyBI7v-38" target="cIsgNL2QNmCeuLE6zkZ4-35" edge="1">
                    <mxGeometry width="50" height="50" relative="1" as="geometry">
                        <mxPoint x="1230" y="450" as="sourcePoint"/>
                        <mxPoint x="1280" y="400" as="targetPoint"/>
                    </mxGeometry>
                </mxCell>
                <mxCell id="UXrXXBjXpSe41hVyBI7v-42" value="UC - Validate feedback" style="ellipse;whiteSpace=wrap;html=1;" parent="1" vertex="1">
                    <mxGeometry x="1570" y="540" width="120" height="80" as="geometry"/>
                </mxCell>
                <mxCell id="UXrXXBjXpSe41hVyBI7v-44" style="edgeStyle=none;html=1;exitX=0;exitY=0.5;exitDx=0;exitDy=0;entryX=1;entryY=0.5;entryDx=0;entryDy=0;" parent="1" source="UXrXXBjXpSe41hVyBI7v-43" target="cIsgNL2QNmCeuLE6zkZ4-33" edge="1">
                    <mxGeometry relative="1" as="geometry"/>
                </mxCell>
                <mxCell id="UXrXXBjXpSe41hVyBI7v-43" value="&amp;lt;include&amp;gt;" style="rounded=0;whiteSpace=wrap;html=1;fillColor=#CCCCCC;" parent="1" vertex="1">
                    <mxGeometry x="1480" y="570" width="60" height="20" as="geometry"/>
                </mxCell>
                <mxCell id="UXrXXBjXpSe41hVyBI7v-45" value="" style="endArrow=none;html=1;exitX=1;exitY=0.5;exitDx=0;exitDy=0;entryX=0;entryY=0.5;entryDx=0;entryDy=0;" parent="1" source="UXrXXBjXpSe41hVyBI7v-43" target="UXrXXBjXpSe41hVyBI7v-42" edge="1">
                    <mxGeometry width="50" height="50" relative="1" as="geometry">
                        <mxPoint x="1530" y="540" as="sourcePoint"/>
                        <mxPoint x="1580" y="490" as="targetPoint"/>
                    </mxGeometry>
                </mxCell>
                <mxCell id="LPGJfSuWznseCfs-JJjP-45" value="" style="edgeStyle=none;html=1;exitX=0.5;exitY=0;exitDx=0;exitDy=0;entryX=0.5;entryY=1;entryDx=0;entryDy=0;endArrow=none;" parent="1" source="LPGJfSuWznseCfs-JJjP-32" target="LPGJfSuWznseCfs-JJjP-44" edge="1">
                    <mxGeometry relative="1" as="geometry">
                        <mxPoint x="500" y="867.5" as="sourcePoint"/>
                        <mxPoint x="400" y="870" as="targetPoint"/>
                    </mxGeometry>
                </mxCell>
                <mxCell id="LPGJfSuWznseCfs-JJjP-44" value="&amp;lt;include&amp;gt;" style="rounded=0;whiteSpace=wrap;html=1;fillColor=#CCCCCC;" parent="1" vertex="1">
                    <mxGeometry x="285" y="930" width="60" height="20" as="geometry"/>
                </mxCell>
                <mxCell id="LPGJfSuWznseCfs-JJjP-78" style="edgeStyle=none;html=1;exitX=0.5;exitY=1;exitDx=0;exitDy=0;entryX=0.5;entryY=0;entryDx=0;entryDy=0;startArrow=none;" edge="1" parent="1" source="LPGJfSuWznseCfs-JJjP-79" target="cIsgNL2QNmCeuLE6zkZ4-47">
                    <mxGeometry relative="1" as="geometry"/>
                </mxCell>
                <mxCell id="cIsgNL2QNmCeuLE6zkZ4-53" value="UC - Upload personal profile picture" style="ellipse;whiteSpace=wrap;html=1;" parent="1" vertex="1">
                    <mxGeometry x="1592.5" y="165" width="140" height="50" as="geometry"/>
                </mxCell>
                <mxCell id="LPGJfSuWznseCfs-JJjP-73" style="edgeStyle=none;html=1;exitX=0.25;exitY=1;exitDx=0;exitDy=0;entryX=1;entryY=0;entryDx=0;entryDy=0;startArrow=none;" edge="1" parent="1" source="LPGJfSuWznseCfs-JJjP-76" target="cIsgNL2QNmCeuLE6zkZ4-47">
                    <mxGeometry relative="1" as="geometry"/>
                </mxCell>
                <mxCell id="cIsgNL2QNmCeuLE6zkZ4-55" value="UC - Add Bio" style="ellipse;whiteSpace=wrap;html=1;" parent="1" vertex="1">
                    <mxGeometry x="1815" y="177.5" width="90" height="47.5" as="geometry"/>
                </mxCell>
                <mxCell id="NdrQbTK8zsEzTxqzjizh-29" value="Anonymous Forum Module" style="rounded=0;whiteSpace=wrap;html=1;" parent="1" vertex="1">
                    <mxGeometry x="1180" y="885" width="190" height="30" as="geometry"/>
                </mxCell>
                <mxCell id="NdrQbTK8zsEzTxqzjizh-30" value="" style="rounded=0;whiteSpace=wrap;html=1;" parent="1" vertex="1">
                    <mxGeometry x="1180" y="915" width="550" height="245" as="geometry"/>
                </mxCell>
                <mxCell id="NdrQbTK8zsEzTxqzjizh-31" value="UC - ForumCreating" style="ellipse;whiteSpace=wrap;html=1;" vertex="1" parent="1">
                    <mxGeometry x="1590" y="929.99" width="120" height="71.25" as="geometry"/>
                </mxCell>
                <mxCell id="NdrQbTK8zsEzTxqzjizh-32" value="UC- Forum Posting" style="ellipse;whiteSpace=wrap;html=1;" vertex="1" parent="1">
                    <mxGeometry x="1350" y="925.62" width="120" height="80" as="geometry"/>
                </mxCell>
                <mxCell id="NdrQbTK8zsEzTxqzjizh-33" value="UC-Forum Comments" style="ellipse;whiteSpace=wrap;html=1;" vertex="1" parent="1">
                    <mxGeometry x="1390" y="1020" width="110" height="76.25" as="geometry"/>
                </mxCell>
                <mxCell id="NdrQbTK8zsEzTxqzjizh-34" value="UC - Forum Filteration" style="ellipse;whiteSpace=wrap;html=1;" vertex="1" parent="1">
                    <mxGeometry x="1610" y="1025.62" width="120" height="80" as="geometry"/>
                </mxCell>
                <mxCell id="v9_ZGucAcSemxysPmhjM-29" value="UC - Post Adding&amp;nbsp;" style="ellipse;whiteSpace=wrap;html=1;" vertex="1" parent="1">
                    <mxGeometry x="1190" y="1016.25" width="120" height="80" as="geometry"/>
                </mxCell>
                <mxCell id="v9_ZGucAcSemxysPmhjM-30" value="UC - Post Delecting" style="ellipse;whiteSpace=wrap;html=1;" vertex="1" parent="1">
                    <mxGeometry x="1200" y="925.62" width="120" height="80" as="geometry"/>
                </mxCell>
                <mxCell id="LPGJfSuWznseCfs-JJjP-49" style="edgeStyle=none;html=1;exitX=0.5;exitY=0;exitDx=0;exitDy=0;startArrow=none;" edge="1" parent="1" source="LPGJfSuWznseCfs-JJjP-53" target="LPGJfSuWznseCfs-JJjP-38">
                    <mxGeometry relative="1" as="geometry"/>
                </mxCell>
                <mxCell id="LPGJfSuWznseCfs-JJjP-46" value="UC0??: Delete&lt;br&gt;Post" style="ellipse;whiteSpace=wrap;html=1;" vertex="1" parent="1">
                    <mxGeometry x="520" y="961.25" width="100" height="42.5" as="geometry"/>
                </mxCell>
                <mxCell id="LPGJfSuWznseCfs-JJjP-52" value="" style="edgeStyle=none;html=1;exitX=0.5;exitY=0;exitDx=0;exitDy=0;entryX=0.5;entryY=1;entryDx=0;entryDy=0;endArrow=none;" edge="1" parent="1" source="LPGJfSuWznseCfs-JJjP-37" target="LPGJfSuWznseCfs-JJjP-51">
                    <mxGeometry relative="1" as="geometry">
                        <mxPoint x="455" y="1003.75" as="sourcePoint"/>
                        <mxPoint x="451.9331054408026" y="904.1739752074304" as="targetPoint"/>
                    </mxGeometry>
                </mxCell>
                <mxCell id="LPGJfSuWznseCfs-JJjP-51" value="&amp;lt;include&amp;gt;" style="rounded=0;whiteSpace=wrap;html=1;fillColor=#CCCCCC;" vertex="1" parent="1">
                    <mxGeometry x="420" y="941.25" width="60" height="20" as="geometry"/>
                </mxCell>
                <mxCell id="30" value="UC0??: Download Report" style="ellipse;whiteSpace=wrap;html=1;" vertex="1" parent="1">
                    <mxGeometry x="232.5" y="700" width="120" height="50" as="geometry"/>
                </mxCell>
                <mxCell id="LPGJfSuWznseCfs-JJjP-54" value="" style="edgeStyle=none;html=1;exitX=0.5;exitY=0;exitDx=0;exitDy=0;endArrow=none;" edge="1" parent="1" source="LPGJfSuWznseCfs-JJjP-46" target="LPGJfSuWznseCfs-JJjP-53">
                    <mxGeometry relative="1" as="geometry">
                        <mxPoint x="570" y="961.25" as="sourcePoint"/>
                        <mxPoint x="512.8412811515564" y="908.7067139161634" as="targetPoint"/>
                    </mxGeometry>
                </mxCell>
                <mxCell id="LPGJfSuWznseCfs-JJjP-53" value="&amp;lt;include&amp;gt;" style="rounded=0;whiteSpace=wrap;html=1;fillColor=#CCCCCC;" vertex="1" parent="1">
                    <mxGeometry x="515" y="930" width="60" height="20" as="geometry"/>
                </mxCell>
                <mxCell id="v9_ZGucAcSemxysPmhjM-35" value="" style="edgeStyle=none;html=1;" edge="1" parent="1" source="v9_ZGucAcSemxysPmhjM-31" target="NdrQbTK8zsEzTxqzjizh-32">
                    <mxGeometry relative="1" as="geometry"/>
                </mxCell>
                <mxCell id="v9_ZGucAcSemxysPmhjM-31" value="&amp;lt;include&amp;gt;" style="rounded=0;whiteSpace=wrap;html=1;fillColor=#CCCCCC;" vertex="1" parent="1">
                    <mxGeometry x="1500" y="955.62" width="60" height="20" as="geometry"/>
                </mxCell>
                <mxCell id="33" style="edgeStyle=none;html=1;exitX=0.5;exitY=0;exitDx=0;exitDy=0;entryX=0.5;entryY=1;entryDx=0;entryDy=0;" edge="1" parent="1" source="31" target="18">
                    <mxGeometry relative="1" as="geometry"/>
                </mxCell>
                <mxCell id="31" value="&amp;lt;include&amp;gt;" style="rounded=0;whiteSpace=wrap;html=1;fillColor=#CCCCCC;" vertex="1" parent="1">
                    <mxGeometry x="352.5" y="670" width="60" height="20" as="geometry"/>
                </mxCell>
                <mxCell id="v9_ZGucAcSemxysPmhjM-37" value="" style="endArrow=none;html=1;entryX=0;entryY=0.5;entryDx=0;entryDy=0;exitX=1;exitY=0.5;exitDx=0;exitDy=0;" edge="1" parent="1" source="v9_ZGucAcSemxysPmhjM-31" target="NdrQbTK8zsEzTxqzjizh-31">
                    <mxGeometry width="50" height="50" relative="1" as="geometry">
                        <mxPoint x="1350" y="990" as="sourcePoint"/>
                        <mxPoint x="1400" y="940" as="targetPoint"/>
                    </mxGeometry>
                </mxCell>
                <mxCell id="32" value="" style="endArrow=none;html=1;entryX=1;entryY=0.5;entryDx=0;entryDy=0;exitX=0.5;exitY=1;exitDx=0;exitDy=0;" edge="1" parent="1" source="31" target="30">
                    <mxGeometry width="50" height="50" relative="1" as="geometry">
                        <mxPoint x="460" y="750" as="sourcePoint"/>
                        <mxPoint x="510" y="700" as="targetPoint"/>
                    </mxGeometry>
                </mxCell>
                <mxCell id="LPGJfSuWznseCfs-JJjP-55" value="" style="rounded=0;whiteSpace=wrap;html=1;fillColor=#FFCCCC;" vertex="1" parent="1">
                    <mxGeometry x="230" y="1110" width="420" height="230" as="geometry"/>
                </mxCell>
                <mxCell id="LPGJfSuWznseCfs-JJjP-56" value="Anonymous Forum Module" style="rounded=0;whiteSpace=wrap;html=1;" vertex="1" parent="1">
                    <mxGeometry x="230" y="1090" width="190" height="20" as="geometry"/>
                </mxCell>
                <mxCell id="LPGJfSuWznseCfs-JJjP-57" value="UC0??: Update Profile" style="ellipse;whiteSpace=wrap;html=1;" vertex="1" parent="1">
                    <mxGeometry x="255" y="1130" width="120" height="50" as="geometry"/>
                </mxCell>
                <mxCell id="LPGJfSuWznseCfs-JJjP-58" style="edgeStyle=none;html=1;exitX=0.5;exitY=0;exitDx=0;exitDy=0;entryX=0.5;entryY=1;entryDx=0;entryDy=0;startArrow=none;" edge="1" parent="1" source="LPGJfSuWznseCfs-JJjP-64" target="LPGJfSuWznseCfs-JJjP-57">
                    <mxGeometry relative="1" as="geometry"/>
                </mxCell>
                <mxCell id="LPGJfSuWznseCfs-JJjP-59" value="UC0??: Delete Profile" style="ellipse;whiteSpace=wrap;html=1;" vertex="1" parent="1">
                    <mxGeometry x="265" y="1255" width="100" height="45" as="geometry"/>
                </mxCell>
                <mxCell id="LPGJfSuWznseCfs-JJjP-60" style="edgeStyle=none;html=1;exitX=0.5;exitY=0;exitDx=0;exitDy=0;entryX=0;entryY=1;entryDx=0;entryDy=0;startArrow=none;" edge="1" parent="1" source="LPGJfSuWznseCfs-JJjP-68" target="LPGJfSuWznseCfs-JJjP-62">
                    <mxGeometry relative="1" as="geometry"/>
                </mxCell>
                <mxCell id="LPGJfSuWznseCfs-JJjP-61" value="UC0??: Edit Post" style="ellipse;whiteSpace=wrap;html=1;" vertex="1" parent="1">
                    <mxGeometry x="395" y="1261.25" width="110" height="32.5" as="geometry"/>
                </mxCell>
                <mxCell id="LPGJfSuWznseCfs-JJjP-62" value="UC0??: Make Post" style="ellipse;whiteSpace=wrap;html=1;" vertex="1" parent="1">
                    <mxGeometry x="435" y="1150" width="115" height="40" as="geometry"/>
                </mxCell>
                <mxCell id="LPGJfSuWznseCfs-JJjP-63" value="" style="edgeStyle=none;html=1;exitX=0.5;exitY=0;exitDx=0;exitDy=0;entryX=0.5;entryY=1;entryDx=0;entryDy=0;endArrow=none;" edge="1" parent="1" source="LPGJfSuWznseCfs-JJjP-59" target="LPGJfSuWznseCfs-JJjP-64">
                    <mxGeometry relative="1" as="geometry">
                        <mxPoint x="500" y="1147.5" as="sourcePoint"/>
                        <mxPoint x="400" y="1150" as="targetPoint"/>
                    </mxGeometry>
                </mxCell>
                <mxCell id="LPGJfSuWznseCfs-JJjP-64" value="&amp;lt;include&amp;gt;" style="rounded=0;whiteSpace=wrap;html=1;fillColor=#CCCCCC;" vertex="1" parent="1">
                    <mxGeometry x="285" y="1210" width="60" height="20" as="geometry"/>
                </mxCell>
                <mxCell id="LPGJfSuWznseCfs-JJjP-65" style="edgeStyle=none;html=1;exitX=0.5;exitY=0;exitDx=0;exitDy=0;startArrow=none;" edge="1" parent="1" source="LPGJfSuWznseCfs-JJjP-70" target="LPGJfSuWznseCfs-JJjP-62">
                    <mxGeometry relative="1" as="geometry"/>
                </mxCell>
                <mxCell id="LPGJfSuWznseCfs-JJjP-66" value="UC0??: Delete&lt;br&gt;Post" style="ellipse;whiteSpace=wrap;html=1;" vertex="1" parent="1">
                    <mxGeometry x="520" y="1241.25" width="100" height="42.5" as="geometry"/>
                </mxCell>
                <mxCell id="LPGJfSuWznseCfs-JJjP-67" value="" style="edgeStyle=none;html=1;exitX=0.5;exitY=0;exitDx=0;exitDy=0;entryX=0.5;entryY=1;entryDx=0;entryDy=0;endArrow=none;" edge="1" parent="1" source="LPGJfSuWznseCfs-JJjP-61" target="LPGJfSuWznseCfs-JJjP-68">
                    <mxGeometry relative="1" as="geometry">
                        <mxPoint x="455" y="1283.75" as="sourcePoint"/>
                        <mxPoint x="451.9331054408026" y="1184.1739752074304" as="targetPoint"/>
                    </mxGeometry>
                </mxCell>
                <mxCell id="LPGJfSuWznseCfs-JJjP-68" value="&amp;lt;include&amp;gt;" style="rounded=0;whiteSpace=wrap;html=1;fillColor=#CCCCCC;" vertex="1" parent="1">
                    <mxGeometry x="420" y="1221.25" width="60" height="20" as="geometry"/>
                </mxCell>
                <mxCell id="LPGJfSuWznseCfs-JJjP-69" value="" style="edgeStyle=none;html=1;exitX=0.5;exitY=0;exitDx=0;exitDy=0;endArrow=none;" edge="1" parent="1" source="LPGJfSuWznseCfs-JJjP-66" target="LPGJfSuWznseCfs-JJjP-70">
                    <mxGeometry relative="1" as="geometry">
                        <mxPoint x="570" y="1241.25" as="sourcePoint"/>
                        <mxPoint x="512.8412811515564" y="1188.7067139161634" as="targetPoint"/>
                    </mxGeometry>
                </mxCell>
                <mxCell id="LPGJfSuWznseCfs-JJjP-70" value="&amp;lt;include&amp;gt;" style="rounded=0;whiteSpace=wrap;html=1;fillColor=#CCCCCC;" vertex="1" parent="1">
                    <mxGeometry x="515" y="1210" width="60" height="20" as="geometry"/>
                </mxCell>
                <mxCell id="v9_ZGucAcSemxysPmhjM-40" style="edgeStyle=none;html=1;" edge="1" parent="1" source="v9_ZGucAcSemxysPmhjM-39" target="NdrQbTK8zsEzTxqzjizh-34">
                    <mxGeometry relative="1" as="geometry"/>
                </mxCell>
                <mxCell id="v9_ZGucAcSemxysPmhjM-39" value="&amp;lt;include&amp;gt;" style="rounded=0;whiteSpace=wrap;html=1;fillColor=#CCCCCC;" vertex="1" parent="1">
                    <mxGeometry x="1520" y="993.75" width="60" height="20" as="geometry"/>
                </mxCell>
                <mxCell id="34" value="Personalised Dashboard Module i thought right side already have?" style="text;html=1;strokeColor=none;fillColor=none;align=center;verticalAlign=middle;whiteSpace=wrap;rounded=0;" vertex="1" parent="1">
                    <mxGeometry x="670" y="930" width="80" height="130" as="geometry"/>
                </mxCell>
                <mxCell id="LPGJfSuWznseCfs-JJjP-71" value="UC000&amp;nbsp;- Submit &lt;br&gt;feedback" style="ellipse;whiteSpace=wrap;html=1;" vertex="1" parent="1">
                    <mxGeometry x="1255" y="250" width="110" height="57.5" as="geometry"/>
                </mxCell>
                <mxCell id="35" value="UC - Edit Posts&amp;nbsp;" style="ellipse;whiteSpace=wrap;html=1;" vertex="1" parent="1">
                    <mxGeometry x="1295" y="1080" width="110" height="80" as="geometry"/>
                </mxCell>
                <mxCell id="v9_ZGucAcSemxysPmhjM-44" value="" style="edgeStyle=none;html=1;" edge="1" parent="1" source="v9_ZGucAcSemxysPmhjM-43" target="v9_ZGucAcSemxysPmhjM-30">
                    <mxGeometry relative="1" as="geometry"/>
                </mxCell>
                <mxCell id="v9_ZGucAcSemxysPmhjM-46" value="" style="edgeStyle=none;html=1;entryX=1;entryY=0.5;entryDx=0;entryDy=0;" edge="1" parent="1" source="v9_ZGucAcSemxysPmhjM-43" target="v9_ZGucAcSemxysPmhjM-29">
                    <mxGeometry relative="1" as="geometry">
                        <mxPoint x="1340" y="1083.4299999999998" as="targetPoint"/>
                    </mxGeometry>
                </mxCell>
                <mxCell id="v9_ZGucAcSemxysPmhjM-50" style="edgeStyle=none;html=1;exitX=0.75;exitY=1;exitDx=0;exitDy=0;" edge="1" parent="1" source="v9_ZGucAcSemxysPmhjM-43" target="35">
                    <mxGeometry relative="1" as="geometry"/>
                </mxCell>
                <mxCell id="v9_ZGucAcSemxysPmhjM-54" value="" style="edgeStyle=none;html=1;" edge="1" parent="1" source="v9_ZGucAcSemxysPmhjM-43" target="NdrQbTK8zsEzTxqzjizh-33">
                    <mxGeometry relative="1" as="geometry"/>
                </mxCell>
                <mxCell id="v9_ZGucAcSemxysPmhjM-43" value="&amp;lt;include&amp;gt;" style="rounded=0;whiteSpace=wrap;html=1;fillColor=#CCCCCC;" vertex="1" parent="1">
                    <mxGeometry x="1310" y="1010" width="60" height="15.62" as="geometry"/>
                </mxCell>
                <mxCell id="36" value="UC - Edit Comments" style="ellipse;whiteSpace=wrap;html=1;" vertex="1" parent="1">
                    <mxGeometry x="1500" y="1070" width="110" height="80" as="geometry"/>
                </mxCell>
                <mxCell id="v9_ZGucAcSemxysPmhjM-48" value="" style="endArrow=none;html=1;entryX=0.111;entryY=0.838;entryDx=0;entryDy=0;entryPerimeter=0;exitX=0.75;exitY=0;exitDx=0;exitDy=0;" edge="1" parent="1" source="v9_ZGucAcSemxysPmhjM-43" target="NdrQbTK8zsEzTxqzjizh-32">
                    <mxGeometry width="50" height="50" relative="1" as="geometry">
                        <mxPoint x="1320" y="1070" as="sourcePoint"/>
                        <mxPoint x="1370" y="1020" as="targetPoint"/>
                    </mxGeometry>
                </mxCell>
                <mxCell id="3wakWfbPMmbxgbvcebb4-36" value="plzzzz help to draw the include arrow....🥹" style="text;html=1;strokeColor=none;fillColor=none;align=center;verticalAlign=middle;whiteSpace=wrap;rounded=0;" vertex="1" parent="1">
                    <mxGeometry x="1870" y="410" width="190" height="90" as="geometry"/>
                </mxCell>
                <mxCell id="v9_ZGucAcSemxysPmhjM-49" value="" style="endArrow=none;html=1;entryX=0.977;entryY=0.694;entryDx=0;entryDy=0;entryPerimeter=0;exitX=0.75;exitY=0;exitDx=0;exitDy=0;" edge="1" parent="1" source="v9_ZGucAcSemxysPmhjM-39" target="NdrQbTK8zsEzTxqzjizh-32">
                    <mxGeometry width="50" height="50" relative="1" as="geometry">
                        <mxPoint x="1364.9999999999998" y="1020" as="sourcePoint"/>
                        <mxPoint x="1373.3199999999997" y="1002.6600000000001" as="targetPoint"/>
                    </mxGeometry>
                </mxCell>
                <mxCell id="40" style="edgeStyle=none;html=1;exitX=0;exitY=0.5;exitDx=0;exitDy=0;entryX=0.945;entryY=0.294;entryDx=0;entryDy=0;entryPerimeter=0;" edge="1" parent="1" source="v9_ZGucAcSemxysPmhjM-51" target="NdrQbTK8zsEzTxqzjizh-33">
                    <mxGeometry relative="1" as="geometry"/>
                </mxCell>
                <mxCell id="v9_ZGucAcSemxysPmhjM-51" value="&amp;lt;include&amp;gt;" style="rounded=0;whiteSpace=wrap;html=1;fillColor=#CCCCCC;" vertex="1" parent="1">
                    <mxGeometry x="1520" y="1027.5" width="60" height="20" as="geometry"/>
                </mxCell>
                <mxCell id="v9_ZGucAcSemxysPmhjM-53" value="" style="endArrow=none;html=1;entryX=0.5;entryY=0;entryDx=0;entryDy=0;exitX=0.5;exitY=1;exitDx=0;exitDy=0;" edge="1" parent="1" source="v9_ZGucAcSemxysPmhjM-51" target="36">
                    <mxGeometry width="50" height="50" relative="1" as="geometry">
                        <mxPoint x="1540" y="1060" as="sourcePoint"/>
                        <mxPoint x="1480" y="1060" as="targetPoint"/>
                    </mxGeometry>
                </mxCell>
                <mxCell id="LPGJfSuWznseCfs-JJjP-77" value="" style="edgeStyle=none;html=1;exitX=0;exitY=1;exitDx=0;exitDy=0;entryX=0.5;entryY=0;entryDx=0;entryDy=0;endArrow=none;" edge="1" parent="1" source="cIsgNL2QNmCeuLE6zkZ4-55" target="LPGJfSuWznseCfs-JJjP-76">
                    <mxGeometry relative="1" as="geometry">
                        <mxPoint x="1953.0603475188195" y="280.480294156809" as="sourcePoint"/>
                        <mxPoint x="1853.2312412104075" y="295.5473721219337" as="targetPoint"/>
                    </mxGeometry>
                </mxCell>
                <mxCell id="LPGJfSuWznseCfs-JJjP-76" value="&amp;lt;include&amp;gt;" style="rounded=0;whiteSpace=wrap;html=1;fillColor=#CCCCCC;" vertex="1" parent="1">
                    <mxGeometry x="1755" y="230" width="60" height="20" as="geometry"/>
                </mxCell>
                <mxCell id="LPGJfSuWznseCfs-JJjP-80" value="" style="edgeStyle=none;html=1;exitX=0.5;exitY=1;exitDx=0;exitDy=0;entryX=0.5;entryY=0;entryDx=0;entryDy=0;endArrow=none;" edge="1" parent="1" source="cIsgNL2QNmCeuLE6zkZ4-53" target="LPGJfSuWznseCfs-JJjP-79">
                    <mxGeometry relative="1" as="geometry">
                        <mxPoint x="1900" y="210" as="sourcePoint"/>
                        <mxPoint x="1810" y="287.4999999999999" as="targetPoint"/>
                    </mxGeometry>
                </mxCell>
                <mxCell id="LPGJfSuWznseCfs-JJjP-79" value="&amp;lt;include&amp;gt;" style="rounded=0;whiteSpace=wrap;html=1;fillColor=#CCCCCC;" vertex="1" parent="1">
                    <mxGeometry x="1660" y="230" width="60" height="20" as="geometry"/>
                </mxCell>
                <mxCell id="41" value="" style="rounded=0;whiteSpace=wrap;html=1;" vertex="1" parent="1">
                    <mxGeometry x="1180" y="1300" width="550" height="245" as="geometry"/>
                </mxCell>
                <mxCell id="42" value="User Information Module" style="rounded=0;whiteSpace=wrap;html=1;" vertex="1" parent="1">
                    <mxGeometry x="1180" y="1270" width="190" height="30" as="geometry"/>
                </mxCell>
            </root>
        </mxGraphModel>
    </diagram>
    <diagram id="jEq61xbtfuYZToS1USGE" name="Registration Module">
        <mxGraphModel dx="490" dy="398" grid="1" gridSize="10" guides="1" tooltips="1" connect="1" arrows="1" fold="1" page="1" pageScale="1" pageWidth="850" pageHeight="1100" math="0" shadow="0">
            <root>
                <mxCell id="0"/>
                <mxCell id="1" parent="0"/>
            </root>
        </mxGraphModel>
    </diagram>
    <diagram id="koUvlcDx6Jtsu5EIQPOX" name="Admin and Reporting">
        <mxGraphModel dx="490" dy="398" grid="1" gridSize="10" guides="1" tooltips="1" connect="1" arrows="1" fold="1" page="1" pageScale="1" pageWidth="850" pageHeight="1100" math="0" shadow="0">
            <root>
                <mxCell id="0"/>
                <mxCell id="1" parent="0"/>
            </root>
        </mxGraphModel>
    </diagram>
</mxfile>